<svg version="1" xmlns="http://www.w3.org/2000/svg" width="362.667" height="362.667" viewBox="0 0 272.000000 272.000000"><path d="M123.5 20.2C100.6 22.6 78.6 32 60.3 47.3c-8.5 7-9.9 8.6-17.9 18.9C18 97.8 11.8 142 26.4 179.3c6.5 16.6 15.1 29.6 27.7 41.9 21.4 21 49.2 32.7 79.2 33.2 16.1.3 25.1-1 39.1-5.5 18.6-6.1 32.9-15 47.1-29.3 17.9-18 28.3-38.4 33-64.6 1.7-9.1 1.1-30.2-1-41.5-4.3-22.9-18.5-47.6-36.6-63.7-26-22.9-57.2-33.1-91.4-29.6zm33 4.5c53.6 10 93.5 57.2 93.7 111.2 0 5.3-.2 11.4-.5 13.6-.4 2.2-.9 6-1.3 8.5-.9 7.1-6 21.8-10.4 30.3-6.2 12-11.6 19.4-21.4 29.3-18 18.1-40.6 29.3-66.5 33-4.7.6-23.5.6-28.6-.1-16.4-2.3-35.3-9.6-49.8-19.2-18.7-12.4-36.1-35.2-43.5-57-4.8-13.9-5.7-20-5.6-37.8 0-15.2.3-18 2.7-26.8 5.3-19.2 12.9-33.8 25.4-48.2 15.8-18.3 41-32.5 65.4-36.9 9.9-1.8 30.5-1.7 40.4.1z"/><path d="M67 116.4c0 51.8.1 53.6 1.9 53.6 1.8 0 1.9-1.1 1.9-22.8 0-12.5.1-24.4.1-26.5l.1-3.7h34c26.5 0 34 .3 34.1 1.2 0 .7.1 18.6.1 39.8 0 37-.1 38.7-2.1 44.2-8 21.1-38.9 28.5-60.2 14.3-2.1-1.4-4.3-2.5-4.9-2.5-2.1 0-.9 3 2.2 5.2 18.1 12.9 47.3 10.2 60.2-5.5 6.7-8.2 8-12.5 8.4-28 .2-7.5.7-13.7 1-13.8.4 0 13.3-.1 28.7-.2 26.1-.2 28.3-.4 32.6-2.4 16.7-7.6 22.7-27.2 12.9-42.6-3.5-5.5-10.4-10.4-16.8-11.9l-4.7-1.1 4.6-4.6c4.7-4.6 7.9-12 7.9-18.1 0-6.2-3.1-13.2-8-18.1-7.3-7.3-10.7-8-38.6-7.7l-22.9.3-.2 22c-.1 12.1-.2 22.9-.2 24.1-.1 2.1-.3 2.1-34.1 2.1l-34-.1-.1-3c0-1.7-.1-13-.2-25.1-.2-20-.4-22-1.9-22.3-1.7-.3-1.8 2.7-1.8 53.2zm126.1-44.6c16 8.3 15.7 31.1-.5 39.4-3.8 2-5.9 2.2-26.8 2.4l-22.8.2V69h44.8l5.3 2.8zm11.6 47.9c9.9 5.4 15 14.5 14 25.4-.9 10.1-7.6 18.3-17.6 21.7-2.2.8-12.6 1.2-30.7 1.2H143v-51.1l28.8.3c27.5.3 28.9.4 32.9 2.5z"/></svg>